<?xml version="1.0" standalone="no"?>
<!DOCTYPE svg PUBLIC "-//W3C//DTD SVG 20010904//EN"
 "http://www.w3.org/TR/2001/REC-SVG-20010904/DTD/svg10.dtd">
<svg version="1.0" xmlns="http://www.w3.org/2000/svg"
 width="2396.000000pt" height="2396.000000pt" viewBox="0 0 2396.000000 2396.000000"
 preserveAspectRatio="xMidYMid meet">
<metadata>
Created by potrace 1.14, written by Peter Selinger 2001-2017
</metadata>
<g transform="translate(0.000000,2396.000000) scale(0.100000,-0.100000)"
fill="#000000" stroke="none">
<path d="M4989 23956 c-2 -2 -49 -7 -104 -10 -55 -4 -116 -9 -135 -12 -19 -2
-53 -6 -75 -8 -619 -68 -1317 -289 -1890 -599 -274 -148 -618 -381 -861 -582
-184 -152 -447 -407 -584 -565 -36 -41 -68 -77 -71 -80 -46 -41 -280 -352
-384 -512 -49 -73 -96 -144 -105 -158 -44 -65 -194 -342 -261 -480 -49 -101
-103 -226 -171 -394 -62 -154 -161 -472 -203 -652 -30 -130 -46 -206 -51 -243
-3 -25 -8 -48 -9 -51 -4 -7 -31 -174 -44 -270 -10 -74 -15 -125 -29 -290 -10
-116 -9 -14007 1 -14145 4 -60 9 -123 11 -140 2 -16 7 -57 11 -90 9 -79 20
-160 30 -215 2 -14 7 -41 9 -60 6 -34 10 -60 21 -110 3 -14 7 -36 10 -50 38
-203 118 -489 208 -740 41 -115 107 -280 127 -319 5 -9 20 -43 35 -76 32 -71
135 -277 177 -355 91 -165 291 -480 310 -488 5 -2 8 -8 8 -13 0 -20 232 -315
369 -469 79 -89 302 -315 406 -410 153 -142 424 -352 625 -486 645 -431 1420
-728 2155 -829 22 -3 54 -7 70 -10 17 -3 53 -7 80 -10 28 -3 66 -8 85 -10 19
-3 78 -8 130 -12 127 -11 14059 -10 14180 0 125 11 187 17 230 23 19 3 49 7
65 9 453 55 1033 220 1460 415 188 85 460 229 595 314 393 248 662 461 976
771 427 423 760 886 1029 1432 36 73 65 134 65 137 0 2 13 33 29 68 76 164
200 504 226 616 2 9 20 73 39 142 32 117 70 278 81 344 2 16 9 52 15 80 5 28
12 67 14 86 2 19 9 64 15 100 16 104 25 183 38 350 10 134 11 14020 0 14160
-9 126 -13 162 -33 305 -8 61 -17 126 -20 145 -2 19 -8 55 -14 80 -5 25 -14
72 -20 105 -5 33 -12 69 -15 80 -3 11 -11 47 -19 80 -67 290 -190 667 -295
900 -10 22 -31 69 -47 105 -55 125 -205 411 -230 441 -8 8 -14 20 -14 25 0 5
-16 33 -35 61 -19 29 -35 54 -35 57 0 9 -162 249 -233 346 -68 91 -216 278
-247 311 -8 8 -35 40 -60 70 -74 90 -397 407 -520 511 -401 340 -826 610
-1280 816 -156 71 -473 192 -501 192 -8 0 -19 4 -24 8 -10 9 -100 38 -140 46
-11 2 -31 9 -45 14 -21 8 -138 39 -221 58 -83 19 -107 25 -129 29 -14 3 -45
10 -70 15 -25 5 -58 12 -75 15 -16 2 -41 7 -55 10 -14 3 -41 7 -60 10 -19 2
-64 9 -100 14 -66 10 -109 15 -215 27 -33 4 -78 9 -100 12 -46 6 -14099 14
-14106 8z"/>
</g>
</svg>
